<svg width="45" height="45" viewBox="0 0 45 45" fill="none" xmlns="http://www.w3.org/2000/svg">
<path fill-rule="evenodd" clip-rule="evenodd" d="M37.6021 2.88459C37.7198 3.00444 37.8271 3.1511 37.9217 3.32794C38.9627 5.27422 37.4299 11.0088 36.506 11.8885C36.2256 12.1555 36.2808 11.9855 36.4294 11.5271C36.5277 11.2236 36.667 10.7939 36.7771 10.2809C37.0487 9.01529 37.0181 7.58815 36.7771 6.22165C35.8968 4.5758 35.7515 4.50646 34.3068 4.18402C33.7499 4.18333 33.1449 4.28875 32.5 4.57386C27.5903 6.74414 27.2289 6.18147 26.7469 4.25232C26.7469 1.94388 29.0662 -0.449945 32.5 0.0725244C35.1791 0.819979 36.6568 1.25723 37.6021 2.88459Z" fill="#384999"/>
<path d="M29.6697 1.06544C30.7452 0.629217 31.2494 0.693537 32.1095 0.86449C31.1225 0.852287 30.8574 1.00433 29.8504 1.62811C29.8504 1.62811 28.5455 2.36454 28.3142 3.3161C28.2449 4.10718 28.8343 3.71663 28.8263 4.24048C28.8183 4.76433 28.5127 5.05132 28.4046 5.08448C27.8706 5.17908 27.7448 5.03054 27.4407 4.52181C27.2547 3.87997 27.2876 3.5395 27.5311 2.95439C27.9483 2.28327 28.4983 1.5352 29.6697 1.06544Z" fill="#8BADD3"/>
<path d="M14.0361 18.6885C13.4096 20.2584 13.5992 21.28 14.3976 22.1047C14.8958 22.687 15.3466 22.6483 17.0783 22.1047C22.1286 19.7318 22.6434 18.2005 25.9036 16.8799C28.6395 15.4696 29.6896 15.0788 32.4397 14.3078C35.8329 13.5611 37.2671 14.0904 39.6988 14.6293C42.5382 16.1256 42.9046 17.1315 43.8855 18.9296C45.0042 21.6696 44.9564 23.133 45 25.9629C45.0016 29.3576 44.843 30.8313 44.0663 33.4786C43.533 35.5676 42.8926 37.0587 41.5964 38.5425C41.1287 39.1305 38.5497 41.1428 33.9458 41.0745L33.8348 41.063C30.7697 40.7441 29.2679 40.5878 25.4217 39.065L22.8313 38.221C20.1483 37.3243 18.9759 36.7741 16.1747 35.046C14.7257 34.4148 14.2849 33.8651 12.6506 31.7905C11.8547 30.0202 11.2128 28.9772 10.9337 26.9677C10.7779 25.2308 10.6923 25.0786 9.7287 23.3636L9.69879 23.3104C8.70699 21.5452 4.87952 20.2157 4.87952 20.2157C4.87952 20.2157 2.11408 18.4908 1.05422 15.4331C0.542904 13.5789 0.388622 13.0636 0 11.6954C2.67913 13.1535 6.11499 12.514 7.07831 12.8207C8.03555 13.1255 9.68302 14.5982 9.69869 14.6289C9.69806 14.5858 9.95442 11.5188 12.2289 9.64567C14.4512 7.96468 15.3174 6.77989 16.4759 4.42093C17.3154 7.34538 17.5287 8.98959 17.0783 11.9365C15.9718 14.7248 15.3085 16.2082 14.0361 18.6885Z" fill="#384999"/>
<path d="M21.1747 21.4698C19.9179 22.3161 19.2895 22.6496 18.1928 23.399C19.8286 22.5077 20.753 22.0727 22.3494 21.2689C24.0361 20.3043 25.0904 20.023 26.9578 18.978C29.0964 18.0536 29.8795 17.6517 32.0181 17.0489C33.7952 16.7676 34.0663 16.4058 35.994 16.2853C37.2576 16.2062 37.3494 16.446 38.4638 16.1245C37.604 15.8825 37.3534 15.5363 35.994 15.602C34.187 15.6607 33.7138 15.8579 32.5904 16.1245C30.8353 16.5192 30.2097 16.7672 29.0964 17.2096C27.217 17.9355 25.9342 18.711 25.9337 18.7771C25.9332 18.8431 21.5345 21.2606 21.1747 21.4698Z" fill="white"/>
<path d="M17.9217 31.1877C15.2394 31.0319 13.0581 30.2316 12.2892 28.6155C12.615 30.5588 13.6424 31.7123 17.4096 33.9207L22.8614 36.533C26.5918 38.3496 28.7457 39.175 32.9819 39.4268C35.4366 39.5936 36.734 39.5545 38.5843 38.7033C38.5843 38.7033 42.4698 37.2967 42.7409 34.845C43.012 32.3934 41.9879 31.7504 40.8433 33.5991C39.6988 35.4479 37.4952 36.3503 33.9458 36.533C30.4401 36.2762 28.4716 36.1617 25.1205 34.403L17.9217 31.1877Z" fill="#8BADD3"/>
<path d="M30.4819 29.1931C30.3968 29.6739 30.1659 30.0207 29.4603 30.1428C28.691 30.1428 28.253 29.6238 28.253 28.9801C28.321 28.3849 28.7626 27.8625 29.4603 27.8118C30.2031 27.9296 30.4639 28.6291 30.4819 29.1931Z" fill="white"/>
<ellipse cx="29.2771" cy="29.5399" rx="0.662651" ry="0.763617" fill="#4F515E"/>
<path d="M24.7289 33.9609C22.9937 34.2434 19.1265 41.6774 17.9518 41.8382C17.3193 41.9247 16.9697 41.7881 16.9277 41.2353C16.8727 40.5119 16.8394 40.1439 16.9277 38.8239C17.2858 33.4721 17.9164 35.7024 17.5592 34.8299C19.6161 30.4461 15.3433 27.0128 17.6368 28.3796C19.9304 29.7464 30.9468 32.9484 24.7289 33.9609Z" fill="#384999"/>
<path d="M24.7289 33.9609C22.9937 34.2434 19.1265 41.6774 17.9518 41.8382C17.3193 41.9247 16.9697 41.7881 16.9277 41.2353C16.8727 40.5119 16.8394 40.1439 16.9277 38.8239C17.2858 33.4721 17.9164 35.7024 17.5592 34.8299C19.6161 30.4461 15.3433 27.0128 17.6368 28.3796C19.9304 29.7464 30.9468 32.9484 24.7289 33.9609Z" fill="#384999"/>
<path d="M21.2375 36.8325C19.5973 39.9192 18.1057 41.5224 17.6147 41.0579C17.4137 40.8677 17.4399 40.3745 17.6673 39.0185C18.0417 37.5191 17.5531 40.6096 18.3724 39.6596C20.7149 37.4324 22.4236 34.5757 23.4965 33.3359C22.8037 34.6221 23.1351 33.8584 21.2375 36.8325Z" fill="#8BADD3"/>
<path d="M10.2576 22.6272C8.601 19.1306 4.59498 18.8895 3.63113 18.1259C2.66727 17.3622 1.41195 15.4506 1.67329 14.0667C2.06486 15.1518 2.81787 16.4781 4.98655 17.4025C5.66688 17.6925 7.07588 18.0013 7.93835 18.6886C9.41426 20.2962 10.0769 21.4617 10.2576 22.6272Z" fill="#8BADD3"/>
<path d="M12.8614 9.927C11.5964 10.57 11.1323 12.1817 10.3615 13.9862C11.1029 12.8108 11.5663 12.0169 12.3193 11.3337C13.0723 10.6504 13.7349 10.3399 14.1265 10.0074C14.5181 9.67489 15.3815 8.3967 15.753 6.9931C14.7539 8.58438 14.1265 9.28395 12.8614 9.927Z" fill="white"/>
</svg>
