<svg width="94" height="30" viewBox="0 0 94 30" fill="none" xmlns="http://www.w3.org/2000/svg">
<path fill-rule="evenodd" clip-rule="evenodd" d="M26.9481 1.92306C27.0325 2.00296 27.1094 2.10074 27.1772 2.21864C27.9232 3.51616 26.8247 7.33918 26.1626 7.92569C25.9617 8.1037 26.0012 7.99034 26.1077 7.68472C26.1781 7.48244 26.278 7.19594 26.3569 6.85395C26.5515 6.0102 26.5296 5.05878 26.3569 4.14778C25.726 3.05053 25.6218 3.00432 24.5865 2.78934C24.1873 2.78889 23.7538 2.85917 23.2916 3.04924C19.773 4.49609 19.514 4.12098 19.1686 2.83488C19.1686 1.29592 20.8307 -0.299963 23.2916 0.0483496C25.2116 0.546653 26.2707 0.838155 26.9481 1.92306Z" fill="#384999"/>
<path d="M21.2633 0.710254C22.0341 0.419437 22.3954 0.462318 23.0118 0.576286C22.3045 0.568151 22.1145 0.669515 21.3928 1.08536C21.3928 1.08536 20.4576 1.57632 20.2919 2.21069C20.2422 2.73808 20.6646 2.47771 20.6589 2.82694C20.6531 3.17618 20.4341 3.3675 20.3567 3.38961C19.9739 3.45268 19.8838 3.35365 19.6659 3.0145C19.5325 2.58661 19.5561 2.35962 19.7306 1.96955C20.0296 1.52214 20.4238 1.02342 21.2633 0.710254Z" fill="#8BADD3"/>
<path d="M10.3183 14.7365C9.74607 14.1867 9.6102 13.5056 10.0592 12.459C10.9711 10.8055 11.4464 9.81655 12.2395 7.95768C12.5622 5.99306 12.4094 4.89692 11.8077 2.94728C10.9774 4.51993 10.3567 5.30979 8.76405 6.43045C7.11921 7.69053 6.94707 9.76106 6.9508 9.75284C6.95453 9.74462 5.76317 8.7516 5.07279 8.54712C4.38241 8.34264 1.92004 8.76901 0 7.79692C0.278513 8.70909 0.38908 9.0526 0.755522 10.2887C1.51509 12.3272 3.49699 13.4772 3.49699 13.4772C3.49699 13.4772 6.24001 14.3634 6.9508 15.5403L6.97223 15.5757C7.66284 16.7191 7.72414 16.8205 7.83584 17.9785C8.03583 19.3182 8.49589 20.0135 9.06626 21.1937C10.2375 22.5767 10.5534 22.9432 11.5919 23.364C13.5994 24.5161 14.4396 24.8829 16.3624 25.4807L18.2189 26.0433C20.9754 27.0585 22.0516 27.1627 24.2483 27.3753L24.3278 27.383C27.6273 27.4285 29.4756 26.087 29.8107 25.695C30.7397 24.7058 31.1987 23.7117 31.5808 22.319C32.1375 20.5542 32.2511 19.5718 32.25 17.3086C32.2188 15.422 32.253 14.4464 31.4513 12.6198C30.7483 11.421 30.4857 10.7504 28.4508 9.75284C26.7081 9.39357 25.6803 9.04076 23.2485 9.53851C21.2775 10.0525 20.525 10.3131 18.5643 11.2533C16.2278 12.1336 15.8588 13.1545 12.2395 14.7365C10.9984 15.0988 10.6754 15.1247 10.3183 14.7365Z" fill="#384999"/>
<path d="M15.1753 14.3132C14.2746 14.8773 13.8242 15.0997 13.0382 15.5993C14.2105 15.0051 14.873 14.7151 16.0171 14.1792C17.226 13.5362 17.9815 13.3486 19.3198 12.652C20.8525 12.0357 21.4137 11.7678 22.9463 11.3659C24.2199 11.1783 24.4142 10.9372 25.7957 10.8568C26.7014 10.8041 26.7671 10.964 27.5658 10.7496C26.9496 10.5883 26.77 10.3575 25.7957 10.4013C24.5008 10.4404 24.1616 10.5719 23.3565 10.7496C22.0987 11.0128 21.6504 11.1781 20.8525 11.4731C19.5056 11.957 18.5863 12.474 18.5859 12.518C18.5855 12.562 15.4331 14.1737 15.1753 14.3132Z" fill="white"/>
<path d="M12.8439 20.7918C10.9216 20.688 9.35832 20.1544 8.80725 19.077C9.04079 20.3725 9.77708 21.1415 12.4769 22.6138L16.384 24.3554C19.0575 25.5664 20.6011 26.1167 23.637 26.2845C25.3962 26.3957 26.3261 26.3696 27.6521 25.8022C27.6521 25.8022 30.4367 24.8644 30.631 23.23C30.8253 21.5956 30.0913 21.1669 29.2711 22.3994C28.4508 23.6319 26.8715 24.2335 24.3278 24.3554C21.8154 24.1841 20.4047 24.1078 18.003 22.9353L12.8439 20.7918Z" fill="#8BADD3"/>
<path d="M21.8454 19.462C21.7844 19.7826 21.619 20.0138 21.1133 20.0952C20.5619 20.0952 20.248 19.7492 20.248 19.32C20.2968 18.9232 20.6132 18.575 21.1133 18.5411C21.6456 18.6197 21.8325 19.086 21.8454 19.462Z" fill="white"/>
<ellipse cx="20.9819" cy="19.6933" rx="0.474899" ry="0.509078" fill="#4F515E"/>
<path d="M17.7224 22.6405C16.4788 22.8289 13.7073 27.7849 12.8655 27.8921C12.4121 27.9498 12.1616 27.8587 12.1315 27.4902C12.0921 27.0079 12.0682 26.7625 12.1315 25.8826C12.3881 22.3147 12.8401 23.8016 12.5841 23.2199C14.0582 20.2974 10.996 18.0085 12.6397 18.9197C14.2834 19.8309 22.1785 21.9656 17.7224 22.6405Z" fill="#384999"/>
<path d="M17.7224 22.6405C16.4788 22.8289 13.7073 27.7849 12.8655 27.8921C12.4121 27.9498 12.1616 27.8587 12.1315 27.4902C12.0921 27.0079 12.0682 26.7625 12.1315 25.8826C12.3881 22.3147 12.8401 23.8016 12.5841 23.2199C14.0582 20.2974 10.996 18.0085 12.6397 18.9197C14.2834 19.8309 22.1785 21.9656 17.7224 22.6405Z" fill="#384999"/>
<path d="M15.2202 24.555C14.0447 26.6128 12.9757 27.6816 12.6238 27.3719C12.4798 27.2451 12.4986 26.9163 12.6615 26.0123C12.9299 25.0127 12.5797 27.073 13.1668 26.4397C14.8456 24.9549 16.0702 23.0504 16.8391 22.2239C16.3427 23.0813 16.5801 22.5723 15.2202 24.555Z" fill="#8BADD3"/>
<path d="M7.35133 15.0848C6.16408 12.7538 3.29309 12.593 2.60233 12.084C1.91157 11.5749 1.01192 10.3005 1.19922 9.37781C1.47984 10.1012 2.0195 10.9854 3.57372 11.6017C4.06129 11.795 5.07107 12.0009 5.68918 12.4591C6.74691 13.5308 7.22181 14.3078 7.35133 15.0848Z" fill="#8BADD3"/>
<path d="M9.21733 6.61804C8.3107 7.04673 7.97811 8.12114 7.42566 9.32419C7.95703 8.54058 8.28911 8.0113 8.82877 7.55581C9.36843 7.10032 9.84333 6.89328 10.124 6.67162C10.4046 6.44997 11.0233 5.59784 11.2896 4.66211C10.5736 5.72296 10.124 6.18934 9.21733 6.61804Z" fill="white"/>
<path d="M36.48 4.344H38.944L40.8 12.008L42.704 4.408L45.696 4.184L47.712 12.232L49.584 4.344H51.872L48.992 15H46.192L44.128 6.568L41.984 15H39.216L36.48 4.344ZM53.3994 3.32H55.6554V7.96C55.986 7.46933 56.3647 7.112 56.7914 6.888C57.218 6.65333 57.7087 6.536 58.2634 6.536C59.1487 6.536 59.842 6.80267 60.3434 7.336C60.8447 7.85867 61.0954 8.58933 61.0954 9.528V15H58.8394V9.88C58.8394 9.45333 58.7327 9.12267 58.5194 8.888C58.306 8.64267 58.018 8.52 57.6554 8.52C57.2607 8.52 56.882 8.65867 56.5194 8.936C56.1674 9.20267 55.8794 9.56 55.6554 10.008V15H53.3994V3.32ZM65.5646 15.24C64.7113 15.24 64.034 14.8773 63.5326 14.152C63.0313 13.4267 62.7806 12.44 62.7806 11.192C62.7806 9.67733 63.1646 8.52533 63.9326 7.736C64.7006 6.936 65.8046 6.536 67.2446 6.536C68.0553 6.536 69.0046 6.664 70.0926 6.92V15H67.9486L67.9966 13.688H67.9326C67.6553 14.1893 67.314 14.5733 66.9086 14.84C66.514 15.1067 66.066 15.24 65.5646 15.24ZM66.0446 13.272C66.3753 13.272 66.7006 13.096 67.0206 12.744C67.3406 12.392 67.6393 11.9227 67.9166 11.336V8.648C67.5753 8.552 67.234 8.504 66.8926 8.504C66.2526 8.504 65.7673 8.72267 65.4366 9.16C65.1166 9.59733 64.9566 10.2427 64.9566 11.096C64.9566 11.768 65.0526 12.3013 65.2446 12.696C65.4366 13.08 65.7033 13.272 66.0446 13.272ZM71.6408 13.064H73.0968V5.24H71.7208V3.32H75.3528V13.064H76.8088V15H71.6408V13.064ZM81.9905 15.24C80.6572 15.24 79.6065 14.856 78.8385 14.088C78.0812 13.32 77.7025 12.2533 77.7025 10.888C77.7025 10.0027 77.8678 9.23467 78.1985 8.584C78.5292 7.92267 78.9932 7.416 79.5905 7.064C80.1985 6.712 80.9078 6.536 81.7185 6.536C82.9132 6.536 83.8305 6.92 84.4705 7.688C85.1105 8.456 85.4305 9.56533 85.4305 11.016C85.4305 11.2613 85.4252 11.4427 85.4145 11.56H79.9745C80.0812 12.1253 80.3265 12.5573 80.7105 12.856C81.0945 13.144 81.6118 13.288 82.2625 13.288C82.6572 13.288 83.0678 13.24 83.4945 13.144C83.9212 13.0373 84.2945 12.8987 84.6145 12.728L84.9825 14.536C84.5558 14.76 84.0812 14.9307 83.5585 15.048C83.0465 15.176 82.5238 15.24 81.9905 15.24ZM83.2705 9.864C83.2385 9.40533 83.0785 9.04267 82.7905 8.776C82.5025 8.49867 82.1185 8.36 81.6385 8.36C81.1798 8.36 80.8012 8.49333 80.5025 8.76C80.2145 9.02667 80.0332 9.39467 79.9585 9.864H83.2705Z" fill="#384999"/>
<path d="M36.8849 28V19.4102H43.0958V20.4238H38.0216V23.0547H42.7736V24.0625H38.0216V26.9863H43.295V28H36.8849ZM48.7677 28V27.2148C48.3732 27.832 47.7931 28.1406 47.0275 28.1406C46.5314 28.1406 46.0743 28.0039 45.6564 27.7305C45.2423 27.457 44.92 27.0762 44.6896 26.5879C44.463 26.0957 44.3497 25.5312 44.3497 24.8945C44.3497 24.2734 44.4532 23.7109 44.6603 23.207C44.8673 22.6992 45.1779 22.3105 45.5919 22.041C46.006 21.7715 46.4689 21.6367 46.9806 21.6367C47.3556 21.6367 47.6896 21.7168 47.9825 21.877C48.2755 22.0332 48.5138 22.2383 48.6974 22.4922V19.4102H49.7462V28H48.7677ZM45.4337 24.8945C45.4337 25.6914 45.6017 26.2871 45.9376 26.6816C46.2736 27.0762 46.67 27.2734 47.1271 27.2734C47.588 27.2734 47.9786 27.0859 48.299 26.7109C48.6232 26.332 48.7853 25.7559 48.7853 24.9824C48.7853 24.1309 48.6212 23.5059 48.2931 23.1074C47.965 22.709 47.5607 22.5098 47.0802 22.5098C46.6115 22.5098 46.2189 22.7012 45.9025 23.084C45.59 23.4668 45.4337 24.0703 45.4337 24.8945ZM55.4884 28V27.0859C55.004 27.7891 54.3458 28.1406 53.5138 28.1406C53.1466 28.1406 52.8029 28.0703 52.4825 27.9297C52.1661 27.7891 51.9298 27.6133 51.7736 27.4023C51.6212 27.1875 51.5138 26.9258 51.4513 26.6172C51.4083 26.4102 51.3868 26.082 51.3868 25.6328V21.7773H52.4415V25.2285C52.4415 25.7793 52.463 26.1504 52.506 26.3418C52.5724 26.6191 52.713 26.8379 52.9279 26.998C53.1427 27.1543 53.4083 27.2324 53.7247 27.2324C54.0411 27.2324 54.338 27.1523 54.6154 26.9922C54.8927 26.8281 55.088 26.6074 55.2013 26.3301C55.3185 26.0488 55.3771 25.6426 55.3771 25.1113V21.7773H56.4318V28H55.4884ZM62.1505 25.7207L63.1876 25.8555C63.0743 26.5703 62.7833 27.1309 62.3146 27.5371C61.8497 27.9395 61.2775 28.1406 60.5978 28.1406C59.7462 28.1406 59.0607 27.8633 58.5411 27.3086C58.0255 26.75 57.7677 25.9512 57.7677 24.9121C57.7677 24.2402 57.879 23.6523 58.1017 23.1484C58.3243 22.6445 58.6622 22.2676 59.1154 22.0176C59.5724 21.7637 60.0685 21.6367 60.6036 21.6367C61.2794 21.6367 61.8322 21.8086 62.2618 22.1523C62.6915 22.4922 62.9669 22.9766 63.088 23.6055L62.0626 23.7637C61.965 23.3457 61.7911 23.0312 61.5411 22.8203C61.295 22.6094 60.9962 22.5039 60.6447 22.5039C60.1134 22.5039 59.6818 22.6953 59.3497 23.0781C59.0177 23.457 58.8517 24.0586 58.8517 24.8828C58.8517 25.7188 59.0118 26.3262 59.3322 26.7051C59.6525 27.084 60.0704 27.2734 60.5861 27.2734C61.0001 27.2734 61.3458 27.1465 61.6232 26.8926C61.9005 26.6387 62.0763 26.248 62.1505 25.7207ZM68.1505 27.2324C67.7599 27.5645 67.3829 27.7988 67.0197 27.9355C66.6603 28.0723 66.2736 28.1406 65.8595 28.1406C65.1759 28.1406 64.6505 27.9746 64.2833 27.6426C63.9161 27.3066 63.7325 26.8789 63.7325 26.3594C63.7325 26.0547 63.8009 25.7773 63.9376 25.5273C64.0782 25.2734 64.2599 25.0703 64.4825 24.918C64.7091 24.7656 64.963 24.6504 65.2443 24.5723C65.4513 24.5176 65.7638 24.4648 66.1818 24.4141C67.0333 24.3125 67.6603 24.1914 68.0626 24.0508C68.0665 23.9062 68.0685 23.8145 68.0685 23.7754C68.0685 23.3457 67.9689 23.043 67.7697 22.8672C67.5001 22.6289 67.0997 22.5098 66.5685 22.5098C66.0724 22.5098 65.7052 22.5977 65.4669 22.7734C65.2325 22.9453 65.0587 23.252 64.9454 23.6934L63.9142 23.5527C64.0079 23.1113 64.1622 22.7559 64.3771 22.4863C64.5919 22.2129 64.9025 22.0039 65.3087 21.8594C65.715 21.7109 66.1857 21.6367 66.7208 21.6367C67.2521 21.6367 67.6837 21.6992 68.0157 21.8242C68.3478 21.9492 68.5919 22.1074 68.7482 22.2988C68.9044 22.4863 69.0138 22.7246 69.0763 23.0137C69.1115 23.1934 69.129 23.5176 69.129 23.9863V25.3926C69.129 26.373 69.1505 26.9941 69.1935 27.2559C69.2404 27.5137 69.3302 27.7617 69.463 28H68.3615C68.2521 27.7812 68.1818 27.5254 68.1505 27.2324ZM68.0626 24.877C67.6798 25.0332 67.1056 25.166 66.34 25.2754C65.9064 25.3379 65.5997 25.4082 65.42 25.4863C65.2404 25.5645 65.1017 25.6797 65.004 25.832C64.9064 25.9805 64.8575 26.1465 64.8575 26.3301C64.8575 26.6113 64.963 26.8457 65.174 27.0332C65.3888 27.2207 65.7013 27.3145 66.1115 27.3145C66.5177 27.3145 66.879 27.2266 67.1954 27.0508C67.5118 26.8711 67.7443 26.627 67.8927 26.3184C68.006 26.0801 68.0626 25.7285 68.0626 25.2637V24.877ZM73.0724 27.0566L73.2247 27.9883C72.9279 28.0508 72.6622 28.082 72.4279 28.082C72.045 28.082 71.7482 28.0215 71.5372 27.9004C71.3263 27.7793 71.1779 27.6211 71.0919 27.4258C71.006 27.2266 70.963 26.8105 70.963 26.1777V22.5977H70.1896V21.7773H70.963V20.2363L72.0118 19.6035V21.7773H73.0724V22.5977H72.0118V26.2363C72.0118 26.5371 72.0294 26.7305 72.0646 26.8164C72.1036 26.9023 72.1642 26.9707 72.2462 27.0215C72.3322 27.0723 72.4532 27.0977 72.6095 27.0977C72.7267 27.0977 72.881 27.084 73.0724 27.0566ZM74.1154 20.623V19.4102H75.17V20.623H74.1154ZM74.1154 28V21.7773H75.17V28H74.1154ZM76.3888 24.8887C76.3888 23.7363 76.7091 22.8828 77.3497 22.3281C77.8849 21.8672 78.5372 21.6367 79.3068 21.6367C80.1622 21.6367 80.8615 21.918 81.4044 22.4805C81.9474 23.0391 82.2189 23.8125 82.2189 24.8008C82.2189 25.6016 82.0978 26.2324 81.8556 26.6934C81.6173 27.1504 81.2677 27.5059 80.8068 27.7598C80.3497 28.0137 79.8497 28.1406 79.3068 28.1406C78.4357 28.1406 77.7306 27.8613 77.1915 27.3027C76.6564 26.7441 76.3888 25.9395 76.3888 24.8887ZM77.4728 24.8887C77.4728 25.6855 77.6466 26.2832 77.9943 26.6816C78.3419 27.0762 78.7794 27.2734 79.3068 27.2734C79.8302 27.2734 80.2657 27.0742 80.6134 26.6758C80.9611 26.2773 81.1349 25.6699 81.1349 24.8535C81.1349 24.084 80.9591 23.502 80.6075 23.1074C80.2599 22.709 79.8263 22.5098 79.3068 22.5098C78.7794 22.5098 78.3419 22.707 77.9943 23.1016C77.6466 23.4961 77.4728 24.0918 77.4728 24.8887ZM83.4611 28V21.7773H84.4103V22.6621C84.8673 21.9785 85.5275 21.6367 86.3907 21.6367C86.7657 21.6367 87.1095 21.7051 87.422 21.8418C87.7384 21.9746 87.9747 22.1504 88.131 22.3691C88.2872 22.5879 88.3966 22.8477 88.4591 23.1484C88.4982 23.3438 88.5177 23.6855 88.5177 24.1738V28H87.463V24.2148C87.463 23.7852 87.422 23.4648 87.34 23.2539C87.2579 23.0391 87.1115 22.8691 86.9005 22.7441C86.6935 22.6152 86.4493 22.5508 86.1681 22.5508C85.7189 22.5508 85.3302 22.6934 85.0021 22.9785C84.6779 23.2637 84.5157 23.8047 84.5157 24.6016V28H83.4611Z" fill="#8BADD3"/>
</svg>
