<svg width="45" height="44" viewBox="0 0 45 44" fill="none" xmlns="http://www.w3.org/2000/svg">
<path fill-rule="evenodd" clip-rule="evenodd" d="M37.6021 2.38459C37.7198 2.50444 37.8271 2.6511 37.9217 2.82794C38.9627 4.77422 37.4299 10.5088 36.506 11.3885C36.2256 11.6555 36.2808 11.4855 36.4294 11.0271C36.5277 10.7236 36.667 10.2939 36.7771 9.78091C37.0487 8.51529 37.0181 7.08815 36.7771 5.72165C35.8968 4.0758 35.7515 4.00646 34.3068 3.68402C33.7499 3.68333 33.1449 3.78875 32.5 4.07385C27.5903 6.24414 27.2289 5.68147 26.7469 3.75232C26.7469 1.44388 29.0662 -0.949945 32.5 -0.427476C35.1791 0.319979 36.6568 0.757231 37.6021 2.38459Z" fill="#384999"/>
<path d="M29.6697 0.565427C30.7452 0.129202 31.2494 0.193522 32.1095 0.364475C31.1225 0.352272 30.8574 0.504318 29.8504 1.12809C29.8504 1.12809 28.5455 1.86453 28.3142 2.81608C28.2449 3.60716 28.8343 3.21661 28.8263 3.74046C28.8183 4.26431 28.5127 4.5513 28.4046 4.58446C27.8706 4.67906 27.7448 4.53052 27.4407 4.0218C27.2547 3.37996 27.2876 3.03948 27.5311 2.45437C27.9483 1.78325 28.4983 1.03518 29.6697 0.565427Z" fill="#8BADD3"/>
<path d="M14.0361 18.1885C13.4096 19.7584 13.5992 20.78 14.3976 21.6047C14.8958 22.187 15.3466 22.1483 17.0783 21.6047C22.1286 19.2318 22.6434 17.7005 25.9036 16.3799C28.6395 14.9696 29.6896 14.5788 32.4397 13.8078C35.8329 13.0611 37.2671 13.5904 39.6988 14.1293C42.5382 15.6256 42.9046 16.6315 43.8855 18.4296C45.0042 21.1696 44.9564 22.633 45 25.463C45.0016 28.8576 44.843 30.3313 44.0663 32.9786C43.533 35.0676 42.8926 36.5587 41.5964 38.0425C41.1287 38.6305 38.5497 40.6428 33.9458 40.5746L33.8348 40.563C30.7697 40.2441 29.2679 40.0878 25.4217 38.565L22.8313 37.721C20.1483 36.8243 18.9759 36.2742 16.1747 34.546C14.7257 33.9148 14.2849 33.3651 12.6506 31.2905C11.8547 29.5202 11.2128 28.4772 10.9337 26.4677C10.7779 24.7308 10.6923 24.5786 9.7287 22.8636L9.69879 22.8104C8.70699 21.0452 4.87952 19.7158 4.87952 19.7158C4.87952 19.7158 2.11408 17.9908 1.05422 14.9331C0.542904 13.0789 0.388622 12.5637 0 11.1954C2.67913 12.6535 6.11499 12.014 7.07831 12.3207C8.03555 12.6255 9.68302 14.0982 9.69869 14.1289C9.69806 14.0859 9.95442 11.0188 12.2289 9.14569C14.4512 7.4647 15.3174 6.27991 16.4759 3.92094C17.3154 6.84539 17.5287 8.48961 17.0783 11.4365C15.9718 14.2248 15.3085 15.7082 14.0361 18.1885Z" fill="#384999"/>
<path d="M21.1747 20.9698C19.9179 21.8161 19.2895 22.1496 18.1928 22.899C19.8286 22.0077 20.753 21.5727 22.3494 20.7689C24.0362 19.8043 25.0904 19.523 26.9578 18.478C29.0964 17.5536 29.8795 17.1517 32.0181 16.5489C33.7952 16.2675 34.0663 15.9058 35.994 15.7853C37.2577 15.7062 37.3494 15.946 38.4639 15.6245C37.604 15.3825 37.3534 15.0363 35.994 15.102C34.1871 15.1607 33.7138 15.3579 32.5904 15.6245C30.8353 16.0192 30.2097 16.2672 29.0964 16.7096C27.217 17.4355 25.9342 18.211 25.9337 18.2771C25.9332 18.3431 21.5346 20.7606 21.1747 20.9698Z" fill="white"/>
<path d="M17.9217 30.6877C15.2394 30.5319 13.0581 29.7317 12.2892 28.1155C12.615 30.0588 13.6424 31.2123 17.4096 33.4207L22.8614 36.033C26.5918 37.8496 28.7457 38.675 32.9819 38.9268C35.4366 39.0936 36.734 39.0545 38.5843 38.2033C38.5843 38.2033 42.4698 36.7967 42.7409 34.3451C43.012 31.8934 41.9879 31.2504 40.8433 33.0992C39.6987 34.9479 37.4951 35.8503 33.9457 36.033C30.4401 35.7762 28.4716 35.6617 25.1205 33.903L17.9217 30.6877Z" fill="#8BADD3"/>
<path d="M30.4819 28.6931C30.3968 29.1739 30.1659 29.5207 29.4603 29.6428C28.6909 29.6428 28.253 29.1238 28.253 28.4801C28.321 27.8849 28.7625 27.3625 29.4603 27.3117C30.2031 27.4296 30.4639 28.1291 30.4819 28.6931Z" fill="white"/>
<ellipse cx="29.2771" cy="29.0399" rx="0.662651" ry="0.763617" fill="#4F515E"/>
<path d="M24.7289 33.4609C22.9937 33.7434 19.1265 41.1774 17.9518 41.3382C17.3193 41.4247 16.9698 41.2881 16.9277 40.7353C16.8727 40.0119 16.8394 39.6439 16.9277 38.3239C17.2858 32.9721 17.9165 35.2024 17.5592 34.3299C19.6161 29.9461 15.3433 26.5128 17.6368 27.8796C19.9304 29.2464 30.9468 32.4484 24.7289 33.4609Z" fill="#384999"/>
<path d="M24.7289 33.4609C22.9937 33.7434 19.1265 41.1774 17.9518 41.3382C17.3193 41.4247 16.9698 41.2881 16.9277 40.7353C16.8727 40.0119 16.8394 39.6439 16.9277 38.3239C17.2858 32.9721 17.9165 35.2024 17.5592 34.3299C19.6161 29.9461 15.3433 26.5128 17.6368 27.8796C19.9304 29.2464 30.9468 32.4484 24.7289 33.4609Z" fill="#384999"/>
<path d="M21.2375 36.3325C19.5973 39.4192 18.1057 41.0224 17.6147 40.5579C17.4137 40.3677 17.4399 39.8745 17.6673 38.5185C18.0417 37.0191 17.5531 40.1096 18.3724 39.1596C20.7149 36.9324 22.4236 34.0757 23.4965 32.8359C22.8037 34.1221 23.1351 33.3584 21.2375 36.3325Z" fill="#8BADD3"/>
<path d="M10.2576 22.1272C8.60099 18.6306 4.59496 18.3895 3.63111 17.6259C2.66726 16.8622 1.41194 14.9506 1.67328 13.5666C2.06484 14.6518 2.81786 15.9781 4.98653 16.9024C5.66687 17.1924 7.07587 17.5013 7.93834 18.1885C9.41424 19.7961 10.0769 20.9617 10.2576 22.1272Z" fill="#8BADD3"/>
<path d="M12.8614 9.42701C11.5964 10.0701 11.1323 11.6817 10.3615 13.4862C11.1029 12.3108 11.5663 11.5169 12.3193 10.8337C13.0723 10.1504 13.7349 9.83988 14.1265 9.50739C14.5181 9.17491 15.3815 7.89672 15.753 6.49312C14.7539 8.0844 14.1265 8.78397 12.8614 9.42701Z" fill="white"/>
</svg>
