<svg width="45" height="38" viewBox="0 0 45 38" fill="none" xmlns="http://www.w3.org/2000/svg">
<path d="M8.99998 27.0323H5.41215C4.7331 27.0323 4.18579 27.4509 4.18579 27.9704V35.1731H10.2162V27.9704C10.2162 27.4509 9.6689 27.0323 8.99998 27.0323Z" fill="#DD9036"/>
<path d="M19.0034 23.8767H15.4156C14.7365 23.8767 14.1892 24.2954 14.1892 24.8149V35.1343H20.2196V24.8149C20.2297 24.2954 19.6825 23.8767 19.0034 23.8767Z" fill="#8E5FAE"/>
<path d="M29.1588 19.0388H25.571C24.8919 19.0388 24.3446 19.4574 24.3446 19.9769V35.1421H30.375V19.9769C30.3851 19.4574 29.8378 19.0388 29.1588 19.0388Z" fill="#EECE43"/>
<path d="M39.3142 8.68054H35.7263C35.0473 8.68054 34.5 9.09921 34.5 9.61867V35.1421H40.5304V9.61867C40.5304 9.09921 39.9831 8.68054 39.3142 8.68054Z" fill="#63A89C"/>
<path d="M21.3345 5.57152L23.6858 6.13751C20.5946 13.3402 11.1791 17.6199 1.61151 16.6043C2.6453 16.9454 3.66893 17.2788 4.84461 17.6199C15.5879 20.318 26.9189 15.8212 30.446 7.71139L32.7973 8.27738L29.7061 0.625L21.3345 5.57152Z" fill="#DE582F"/>
<path d="M43.4899 35.0646H1.51015C0.679069 35.0646 0 35.584 0 36.2198C0 36.8556 0.679069 37.375 1.51015 37.375H43.4899C44.321 37.375 45 36.8556 45 36.2198C45 35.584 44.321 35.0646 43.4899 35.0646Z" fill="#3E5558"/>
</svg>
