<svg width="1000" height="1000" viewBox="0 0 1000 1000" fill="none" xmlns="http://www.w3.org/2000/svg">
<path d="M444.838 592.218C441.838 574.967 431.538 560.707 417.438 554.037L315.938 504.7H155.938L54.4384 554.037C40.3384 560.707 30.0384 575.082 27.0384 592.218L12.6384 675.251C8.63842 698.251 23.9384 719.757 44.4384 719.757H427.638C448.038 719.757 463.438 698.251 459.438 675.251L444.838 592.218Z" fill="#6F8CEF"/>
<path d="M178.438 469.509C189.238 506.77 210.838 533.681 235.938 556.337C261.138 533.566 280.938 506.655 293.438 469.509V428.108H178.438V469.509Z" fill="#D8BE7E"/>
<path d="M327.738 335.07C318.738 333 306.138 345.42 302.538 364.051C298.938 384.751 304.338 403.382 315.138 407.522C327.738 409.592 338.538 397.172 342.138 376.471C345.738 357.841 338.538 339.21 327.738 335.07Z" fill="#D8BE7E"/>
<path d="M144.338 335.07C131.738 339.21 126.338 357.841 129.938 376.471C133.538 397.172 144.338 409.592 156.938 407.522C167.738 403.382 173.138 384.751 169.538 364.051C165.838 345.42 153.338 333 144.338 335.07Z" fill="#D8BE7E"/>
<path d="M232.338 306.089C205.338 306.089 183.738 297.809 167.638 283.318C153.238 306.089 144.238 335.07 144.238 368.076C144.238 438.343 185.638 494.235 235.938 494.235C286.238 494.235 327.638 438.343 327.638 368.076C327.638 332.885 316.838 301.834 300.638 279.178C282.738 295.739 261.138 306.089 232.338 306.089Z" fill="#EBCF88"/>
<path d="M235.938 182C178.438 182 137.038 208.911 137.038 299.879C137.038 325.295 138.438 354.045 144.838 383.026C144.438 378.081 144.138 373.136 144.138 368.076C144.138 341.165 150.138 316.899 160.038 296.544C163.538 289.298 171.538 287.113 177.838 291.138C192.538 300.684 210.638 305.974 232.238 305.974C255.938 305.974 274.738 298.959 290.638 287.228C296.738 282.743 304.738 284.813 308.538 291.828C320.138 312.874 327.438 338.98 327.438 367.961C327.438 368.191 327.438 368.421 327.438 368.651C333.538 343.005 334.638 319.314 334.638 295.624C336.638 206.841 293.438 182 235.938 182Z" fill="#484325"/>
<path d="M235.938 556.337C223.338 556.337 201.738 595.668 201.738 595.668L217.938 614.299L201.738 719.757H270.138L253.938 614.299L270.138 595.668C270.138 595.668 248.538 556.452 235.938 556.337Z" fill="#465A6B"/>
<path d="M291.338 469.509C280.838 505.62 260.238 532.071 235.938 554.382C211.738 532.071 191.038 505.62 180.538 469.509C176.938 469.509 160.738 494.35 157.138 504.7L192.738 594.058C194.438 598.313 199.438 599.003 201.938 595.208C209.238 584.168 218.738 571.977 230.038 561.512C233.438 558.407 238.238 558.177 241.638 561.397C252.938 571.862 262.538 584.168 269.838 595.208C272.338 599.003 277.338 598.428 279.038 594.058L314.638 504.7C311.138 494.35 294.938 469.509 291.338 469.509Z" fill="#E8EDFD"/>
<path d="M973.438 592.218C970.438 574.967 960.138 560.707 946.038 554.037L844.538 504.7H684.438L582.938 554.037C568.838 560.707 558.538 575.082 555.538 592.218L541.138 675.251C537.138 698.251 552.438 719.757 572.938 719.757H956.138C976.538 719.757 991.938 698.251 987.938 675.251L973.438 592.218Z" fill="#3D4B5F"/>
<path d="M737.939 719.757H764.439H791.039L831.539 504.7H697.438L737.939 719.757Z" fill="#8581C7"/>
<path d="M706.938 469.509C717.738 506.77 739.338 533.681 764.438 556.337C789.638 533.566 809.438 506.655 821.938 469.509V428.108H706.838V469.509H706.938Z" fill="#C1AA72"/>
<path d="M764.538 556.337C751.938 556.337 730.338 595.668 730.338 595.668L746.538 614.299L730.338 719.757H798.638L782.438 614.299L798.638 595.668C798.638 595.668 777.038 556.452 764.538 556.337Z" fill="#D3635C"/>
<path d="M819.838 469.509C809.338 505.62 788.738 532.071 764.438 554.382C740.238 532.071 719.538 505.62 709.038 469.509C705.438 469.509 689.238 494.35 685.638 504.7L721.238 594.058C722.938 598.313 727.938 599.003 730.438 595.208C737.738 584.168 747.238 571.977 758.538 561.512C761.938 558.407 766.738 558.177 770.138 561.397C781.438 571.862 791.038 584.168 798.338 595.208C800.838 599.003 805.838 598.428 807.538 594.058L843.138 504.7C839.638 494.35 823.438 469.509 819.838 469.509Z" fill="#E8EDFD"/>
<path d="M641.039 525.746L674.339 568.757L643.739 601.878L706.639 719.757H742.639L698.239 481.929L641.039 525.746Z" fill="#465A6B"/>
<path d="M830.839 481.929L786.539 719.757H822.439L885.439 601.878L854.839 568.757L888.039 525.746L830.839 481.929Z" fill="#465A6B"/>
<path d="M854.938 343.465C844.138 339.325 833.338 351.745 829.738 370.376C826.138 389.006 831.538 407.637 842.338 411.777C853.138 415.917 863.938 401.427 867.538 382.796C871.138 364.166 865.738 345.535 854.938 343.465Z" fill="#C1AA72"/>
<path d="M673.238 343.465C664.238 345.535 658.838 364.166 660.638 382.796C664.238 401.427 675.038 415.917 685.838 411.777C696.638 407.637 702.038 389.006 698.438 370.376C694.838 351.745 684.038 339.325 673.238 343.465Z" fill="#C1AA72"/>
<path d="M804.538 287.688C782.938 312.529 752.338 331.16 712.838 331.16C700.238 331.16 689.438 329.09 678.638 327.02C676.838 337.37 676.838 349.79 676.838 360.141C676.838 436.618 716.438 498.72 764.938 498.72C813.538 498.72 853.038 436.618 853.038 360.141C853.038 345.65 851.238 329.09 847.638 316.669C831.538 310.459 817.138 300.109 804.538 287.688Z" fill="#D8BE7E"/>
<path d="M763.238 192.465C702.138 192.465 658.938 221.446 664.338 312.414C666.038 338.175 667.838 369.571 680.538 399.472C678.138 386.936 676.838 373.711 676.838 360.026C676.838 349.675 676.838 337.255 678.638 326.905C689.438 328.975 700.238 331.045 712.838 331.045C752.438 331.045 782.938 312.414 804.538 287.573C817.138 299.994 831.538 310.344 847.738 316.554C851.338 328.975 853.138 345.535 853.138 360.026C853.138 372.216 852.138 384.061 850.238 395.447C862.338 364.856 864.038 337.485 865.738 308.389C869.338 219.376 824.338 192.465 763.238 192.465Z" fill="#23221E"/>
<path d="M656.938 688.361V686.636H656.138C656.438 687.211 656.638 687.786 656.938 688.361Z" fill="#23221E"/>
<path d="M613.538 442.483C613.538 365.891 562.438 298.154 494.238 294.588C424.538 292.863 367.238 356.92 367.238 435.353V463.874C367.238 540.466 351.738 617.059 323.838 686.521H656.138C627.238 617.519 613.538 541.616 613.538 465.599V442.483Z" fill="#23221E"/>
<path d="M673.938 690.546C671.338 673.295 662.238 659.035 649.838 652.365L560.638 603.028H420.038L330.838 652.365C318.438 659.035 309.438 673.41 306.738 690.546L294.038 773.579C290.538 796.579 304.038 818.085 321.938 818.085H658.738C676.738 818.085 690.138 796.579 686.638 773.579L673.938 690.546Z" fill="#D04D4B"/>
<path d="M463.838 818.2H490.338H516.938L557.438 603.028H423.238L463.838 818.2Z" fill="#E8EDFD"/>
<path d="M432.838 638.679C443.638 675.94 458.338 725.507 490.338 725.507C522.238 725.507 535.338 675.825 547.838 638.679V526.551H432.838V638.679Z" fill="#C1AA72"/>
<path d="M420.038 603.028L370.638 701.816C366.838 709.522 370.338 719.297 377.838 721.482L412.238 731.832C417.038 733.327 418.338 740.457 414.338 744.023L406.138 751.268C400.938 755.868 399.438 764.263 402.838 770.818L427.338 818.2H473.638C454.438 753.913 434.138 634.079 432.838 588.883L420.038 603.028Z" fill="#D3635C"/>
<path d="M560.639 603.028L547.839 588.768C546.639 633.964 526.239 753.798 507.039 818.085H553.339L577.839 770.704C581.239 764.148 579.839 755.753 574.539 751.153L566.339 743.908C562.339 740.458 563.639 733.212 568.439 731.717L602.839 721.367C610.239 719.182 613.839 709.407 610.039 701.701L560.639 603.028Z" fill="#D3635C"/>
<path d="M525.238 369.456C506.638 417.527 467.938 456.744 410.638 458.584C409.138 467.439 409.138 476.409 409.138 485.264C409.138 556.567 446.338 613.493 492.838 613.493C539.338 613.493 576.538 556.452 576.538 485.264C573.238 433.628 553.138 389.121 525.238 369.456Z" fill="#D8BE7E"/>
</svg>
