<svg width="45" height="30" viewBox="0 0 45 30" fill="none" xmlns="http://www.w3.org/2000/svg">
<path d="M23.0154 3.30465C22.0655 2.21944 21.0132 2.53954 21.0132 2.53954L20.6305 2.64884C19.0111 3.30465 17.4872 4.06196 15.9634 4.93637C13.3941 6.34949 12.3486 5.91228 12.3486 5.91228L10.8248 5.14717L9.49226 4.49136L4.92761 17.9902L6.26011 18.5367L8.6381 19.6219C10.2576 20.1684 10.9204 22.2295 10.9204 22.2295L22.9197 29.623L23.4937 29.7323C24.5392 29.9509 25.5847 28.9672 25.5847 27.7727C25.5847 27.6634 25.5847 27.5541 25.5847 27.4448L26.3432 27.7727C27.58 28.3192 28.9125 27.2262 28.9125 25.8131C28.9125 25.7038 28.9125 25.7038 28.9125 25.5945L29.671 25.8131C31.0035 26.2503 32.336 24.9465 32.336 23.424C32.336 23.2054 32.2403 23.0961 32.2403 22.8775C33.9555 23.424 35.288 21.2458 34.5227 19.5048L23.0154 3.30465Z" fill="#AB8768"/>
<path d="M8.71325 3.41395L5.7476 2.11013C5.2146 1.87591 4.6201 2.18039 4.4151 2.78936L0.0691187 15.726C-0.13588 16.335 0.130619 17.0142 0.663617 17.2485L3.62927 18.5523C4.16227 18.7865 4.75677 18.482 4.95493 17.873L9.30091 4.93637C9.50591 4.3274 9.23941 3.64816 8.71325 3.41395Z" fill="#88DEAE"/>
<path d="M35.5818 3.41395L30.819 4.49917L24.5392 3.19535C24.0608 3.08605 23.685 3.08605 23.3023 3.30465L18.068 5.80299C17.5897 6.02159 17.2139 6.4588 17.0225 6.8882L15.4987 10.0423C14.5489 12.1113 16.5442 14.391 18.355 13.3058C18.355 13.1965 18.4507 13.1965 18.4507 13.1965C18.4507 13.1965 20.2615 11.6741 21.1157 9.49584C21.1157 9.49584 22.9265 10.2609 25.2088 9.16793C25.2088 9.16793 27.7782 11.2369 29.9716 13.6259C31.6868 15.4762 32.9236 17.5452 34.4475 19.6063L37.5908 16.1242L38.7319 15.9056L40.0644 15.687L37.0168 3.07043L35.5818 3.41395Z" fill="#D4A57F"/>
<path d="M22.25 26.0317C21.5804 25.4852 20.6305 25.8131 19.872 26.7968C20.446 25.6023 20.3504 24.4078 19.6807 23.7519C18.9222 23.0961 17.5897 23.5333 16.633 24.7279C17.1114 23.5333 17.0157 22.4403 16.4417 21.9016C15.6832 21.1365 14.1594 21.9016 13.1071 23.3147C13.6811 22.1202 13.5854 20.9257 12.9157 20.2699C12.1572 19.5048 10.7291 20.0513 9.77241 21.4644C8.82258 22.7682 8.72691 24.5093 9.58108 25.1651C10.3396 25.8209 11.6721 25.3837 12.6287 24.0798C11.9591 25.3837 11.9591 26.7968 12.6287 27.3433C13.3872 28.1084 14.9111 27.3433 15.9634 25.9302C15.5807 27.0154 15.6764 27.9991 16.346 28.5378C17.1045 29.1936 18.5327 28.7564 19.3937 27.4526C19.011 28.3192 19.1067 29.3029 19.585 29.7401C20.2547 30.2866 21.3002 29.9587 22.0587 28.8735C22.824 27.882 22.9197 26.5782 22.25 26.0317Z" fill="#D4A57F"/>
<path d="M2.82975 16.8971C3.30149 16.8971 3.68391 16.4602 3.68391 15.9212C3.68391 15.3822 3.30149 14.9453 2.82975 14.9453C2.35801 14.9453 1.97559 15.3822 1.97559 15.9212C1.97559 16.4602 2.35801 16.8971 2.82975 16.8971Z" fill="#A8B8B1"/>
<path d="M41.8889 1.3216C41.6429 0.353496 40.7614 -0.208629 39.9141 0.0724335L37.953 0.720438C37.1056 1.0015 36.6136 2.00864 36.8596 2.97675L39.9073 15.039C40.1533 16.0071 41.0348 16.5692 41.8821 16.2882L43.8433 15.6402C44.6906 15.3591 45.1826 14.352 44.9366 13.3839L41.8889 1.3216Z" fill="#CF6321"/>
</svg>
