<svg width="45" height="44" viewBox="0 0 45 44" fill="none" xmlns="http://www.w3.org/2000/svg">
<path d="M22.5044 13.7867C17.2243 13.7867 12.8962 17.4638 12.8962 22C12.8962 22.1507 12.9051 22.2939 12.9139 22.437H12.8962C12.8962 24.7127 15.1176 28.0809 15.9991 29.3392C16.8894 30.6052 17.621 33.9056 17.621 33.9056H27.4496C27.4496 33.9056 28.1195 30.5976 29.001 29.3392C29.8913 28.0733 32.1038 24.7202 32.1038 22.4446L32.0862 22.437C32.095 22.2939 32.1038 22.1432 32.1038 21.9925C32.1038 17.4638 27.8903 13.7867 22.5044 13.7867Z" fill="#E6C14E"/>
<path d="M26.9382 33.8905H22.5044H18.0705C17.2595 33.8905 16.5984 34.3275 16.5984 35.0208V39.4439C16.5984 42.2244 19.2869 44.5 22.5044 44.5C25.8187 44.5 28.4103 42.2244 28.4103 39.4439V35.0208C28.4015 34.3275 27.7492 33.8905 26.9382 33.8905Z" fill="#583D5A"/>
<path d="M28.7277 35.2167H22.4427H16.1665C15.9638 35.2167 15.8228 35.3523 15.8228 35.5256V36.475C15.8228 36.6484 15.9638 36.8066 16.1665 36.8066H22.4515H28.7365C28.9393 36.8066 29.1861 36.6484 29.1861 36.475V35.5256C29.1773 35.3599 28.9305 35.2167 28.7277 35.2167Z" fill="#B1ABB1"/>
<path d="M28.7277 38.1403H22.4427H16.1665C15.9638 38.1403 15.8228 38.2609 15.8228 38.4342V39.3836C15.8228 39.557 15.9638 39.7378 16.1665 39.7378H22.4515H28.7365C28.9393 39.7378 29.1861 39.557 29.1861 39.3836V38.4342C29.1773 38.2609 28.9305 38.1403 28.7277 38.1403Z" fill="#B1ABB1"/>
<path d="M22.5661 -0.5C21.8168 -0.5 21.2438 0.0199301 21.2438 0.652884V4.03617C21.2438 4.67666 21.8256 5.18905 22.5661 5.18905C23.3153 5.18905 23.8883 4.66913 23.8883 4.03617V0.652884C23.8883 0.0199301 23.3065 -0.5 22.5661 -0.5Z" fill="#E6C14E"/>
<path d="M43.6513 17.7125H39.6934C38.9441 17.7125 38.3447 18.2098 38.3447 18.8428C38.3447 19.4833 38.953 19.973 39.6934 19.973H43.6513C44.4005 19.973 45 19.4757 45 18.8428C45.0088 18.2098 44.4005 17.7125 43.6513 17.7125Z" fill="#E6C14E"/>
<path d="M5.30656 17.7125H1.34868C0.599415 17.7125 0 18.2098 0 18.8428C0 19.4833 0.60823 19.973 1.34868 19.973H5.30656C6.05582 19.973 6.65523 19.4757 6.65523 18.8428C6.65523 18.2098 6.05582 17.7125 5.30656 17.7125Z" fill="#E6C14E"/>
<path d="M8.49748 5.13631C7.96859 4.6842 7.11355 4.6842 6.58466 5.13631C6.05577 5.58842 6.05577 6.31933 6.58466 6.77144L9.38778 9.16762C9.65223 9.39368 9.99601 9.5067 10.3398 9.5067C10.6836 9.5067 11.0273 9.39368 11.2918 9.16762C11.8207 8.71551 11.8207 7.9846 11.2918 7.53249L8.49748 5.13631Z" fill="#E6C14E"/>
<path d="M36.5023 5.13631L33.6992 7.53249C33.1703 7.9846 33.1703 8.71551 33.6992 9.16762C33.9636 9.39368 34.3074 9.5067 34.6512 9.5067C34.9949 9.5067 35.3387 9.39368 35.6032 9.16762L38.4063 6.77144C38.9352 6.31933 38.9352 5.58842 38.4063 5.13631C37.8862 4.6842 37.0312 4.6842 36.5023 5.13631Z" fill="#E6C14E"/>
<path d="M35.8411 21.8267C35.8411 20.1916 34.3955 19.1969 34.3955 19.1969C35.7089 16.002 32.3064 15.7308 32.3064 15.7308C32.8441 12.0536 28.419 12.6865 28.419 12.6865C24.6815 9.36353 23.2271 13.4325 23.2271 13.4325V30.2284C23.2271 30.2284 24.6815 34.2974 28.419 30.9744C28.419 30.9744 32.8353 31.5998 32.3064 27.9302C32.3064 27.9302 35.7001 27.6589 34.3955 24.464C34.3955 24.4565 35.8411 23.492 35.8411 21.8267Z" fill="#CA623E"/>
<path d="M28.4278 12.6865C28.322 12.5961 28.2163 12.5057 28.1193 12.4228C27.9871 12.5358 27.9518 12.7091 28.04 12.8523C28.04 12.8598 28.4366 13.5531 28.1634 14.1182C28.0047 14.4347 27.6433 14.6758 27.088 14.8265C26.8588 14.8868 26.7266 15.0978 26.7971 15.2937C26.8588 15.4519 27.0263 15.5574 27.2114 15.5574C27.2554 15.5574 27.2995 15.5499 27.3436 15.5424C28.1546 15.3238 28.7011 14.9471 28.9655 14.4121C29.3181 13.7038 29.0272 12.9502 28.8862 12.6488C28.6041 12.6564 28.4278 12.6865 28.4278 12.6865Z" fill="#8C462E"/>
<path d="M32.3504 15.1128C32.2447 15.1505 32.1389 15.2108 32.0596 15.2786C31.9097 15.4067 31.8304 15.565 31.8304 15.7307C31.8304 16.0623 31.5747 16.2205 30.9753 16.4993C30.3142 16.8007 29.3181 17.2604 29.8029 18.4961C29.9792 18.9558 29.8999 19.3401 29.5738 19.5661C29.3005 19.747 28.9303 19.7696 28.6482 19.6189C28.4455 19.5134 28.1722 19.5661 28.0488 19.7394C27.9254 19.9127 27.9871 20.1463 28.1898 20.2518C28.4543 20.395 28.7628 20.4628 29.0625 20.4628C29.4327 20.4628 29.8118 20.3573 30.1115 20.1463C30.7373 19.7244 30.9312 19.0161 30.6315 18.255C30.3935 17.6447 30.6756 17.4864 31.3896 17.1549C31.9273 16.9062 32.659 16.5671 32.703 15.8061C32.7119 15.8061 32.7207 15.8061 32.7207 15.8061C32.4739 15.7533 32.3064 15.7383 32.3064 15.7383C32.3416 15.5122 32.3593 15.3012 32.3504 15.1128Z" fill="#8C462E"/>
<path d="M34.3956 19.1969C34.4485 19.0763 34.4837 18.9558 34.5278 18.8427C34.4925 18.8352 34.4661 18.8277 34.4308 18.8277C34.3779 18.8277 33.2144 18.7599 32.4475 19.3476C32.042 19.6641 31.8216 20.0936 31.804 20.6286C31.7952 20.832 31.9891 21.0053 32.2271 21.0129H32.2359C32.4739 21.0129 32.6679 20.8546 32.6767 20.6512C32.6855 20.3272 32.8001 20.0785 33.0293 19.9052C33.5141 19.5284 34.3515 19.5737 34.3691 19.5737C34.5013 19.5812 34.6248 19.536 34.7129 19.4606C34.5278 19.2873 34.3956 19.1969 34.3956 19.1969Z" fill="#8C462E"/>
<path d="M31.0194 24.6674C30.561 25.1874 30.0586 25.2175 29.7236 25.1497C29.3005 25.0668 28.9127 24.7654 28.851 24.4791C28.8069 24.2756 28.5777 24.14 28.3397 24.1777C28.1017 24.2153 27.943 24.4112 27.9871 24.6147C28.1193 25.2024 28.7452 25.7224 29.5209 25.8806C29.6795 25.9107 29.8294 25.9258 29.9881 25.9258C30.6404 25.9258 31.2574 25.647 31.7158 25.1196C32.5708 24.14 34.1311 24.7654 34.2104 24.7955C34.3162 24.8407 34.4308 24.8407 34.5277 24.8181C34.4925 24.7051 34.4484 24.5846 34.3955 24.464C34.3955 24.464 34.5277 24.3736 34.7128 24.2078C34.6776 24.1777 34.6335 24.1475 34.5894 24.1249C33.8049 23.7934 32.0507 23.492 31.0194 24.6674Z" fill="#8C462E"/>
<path d="M27.758 29.2639C27.0616 28.8871 26.1537 28.8796 25.043 29.2413C24.8138 29.3166 24.708 29.5276 24.7874 29.7235C24.8755 29.9194 25.1223 30.0099 25.3515 29.942C26.1801 29.6708 26.8324 29.6557 27.282 29.8968C27.9078 30.2284 27.9872 30.9894 27.9872 31.0045C27.996 31.0949 28.0401 31.1778 28.1106 31.2381C28.2164 31.1552 28.3133 31.0723 28.4191 30.9744C28.4191 30.9744 28.5866 30.997 28.851 31.012C28.851 30.9894 28.851 30.9744 28.851 30.9518C28.8598 30.899 28.7541 29.8064 27.758 29.2639Z" fill="#8C462E"/>
<path d="M28.7893 26.9506C28.6571 26.7773 28.3926 26.7245 28.1899 26.8376C27.9871 26.9506 27.9254 27.1766 28.0577 27.35C28.9392 28.533 30.2261 28.8871 31.3544 28.8871C31.707 28.8871 32.042 28.8494 32.3505 28.7967C32.3681 28.5631 32.3681 28.3144 32.3329 28.0356C31.4778 28.2165 29.8294 28.3446 28.7893 26.9506Z" fill="#8C462E"/>
<path d="M16.572 12.6865C16.572 12.6865 12.1558 12.0611 12.6847 15.7308C12.6847 15.7308 9.29094 16.002 10.5955 19.1969C10.5955 19.1969 9.1499 20.1916 9.1499 21.8267C9.1499 23.492 10.5955 24.4565 10.5955 24.4565C9.28213 27.6514 12.6847 27.9226 12.6847 27.9226C12.147 31.5998 16.572 30.9669 16.572 30.9669C20.3095 34.2899 21.764 30.2209 21.764 30.2209V13.425C21.764 13.4325 20.3095 9.36353 16.572 12.6865Z" fill="#CA623E"/>
<path d="M17.9118 14.8265C17.3564 14.6758 16.995 14.4422 16.8364 14.1182C16.5543 13.5531 16.951 12.8598 16.9598 12.8523C17.0479 12.7016 17.0127 12.5358 16.8804 12.4228C16.7835 12.5057 16.6777 12.5886 16.5719 12.6865C16.5719 12.6865 16.3956 12.6639 16.1135 12.6488C15.9725 12.9502 15.6816 13.7038 16.0342 14.4121C16.2987 14.9471 16.8364 15.3238 17.6562 15.5424C17.7002 15.5574 17.7443 15.5574 17.7884 15.5574C17.9735 15.5574 18.1498 15.4519 18.2027 15.2937C18.2732 15.0978 18.1498 14.8868 17.9118 14.8265Z" fill="#8C462E"/>
<path d="M16.3515 19.6113C16.0694 19.762 15.6992 19.7394 15.426 19.5586C15.0998 19.3401 15.0117 18.9482 15.1968 18.4886C15.6816 17.2528 14.6855 16.8007 14.0244 16.4918C13.425 16.213 13.1694 16.0623 13.1694 15.7232C13.1694 15.5574 13.09 15.3992 12.9402 15.2711C12.852 15.1957 12.7551 15.143 12.6493 15.1053C12.6493 15.2937 12.6581 15.5047 12.6933 15.7232C12.6933 15.7232 12.5259 15.7383 12.2791 15.791C12.2879 15.791 12.2967 15.791 12.2967 15.791C12.3408 16.552 13.0724 16.8911 13.6101 17.1398C14.3241 17.4714 14.6062 17.6296 14.3682 18.2399C14.0685 19.001 14.2624 19.7093 14.8883 20.1313C15.1968 20.3422 15.567 20.4477 15.9372 20.4477C16.2369 20.4477 16.5455 20.3799 16.8099 20.2367C17.0126 20.1313 17.0743 19.8977 16.9509 19.7244C16.8275 19.5511 16.5543 19.4983 16.3515 19.6113Z" fill="#8C462E"/>
<path d="M10.5689 18.8277C10.5337 18.8277 10.5072 18.8352 10.472 18.8427C10.5072 18.9558 10.5513 19.0763 10.6042 19.1969C10.6042 19.1969 10.472 19.2873 10.2957 19.4531C10.3838 19.5285 10.5072 19.5737 10.6394 19.5661C10.6571 19.5661 11.4945 19.5209 11.9793 19.8977C12.2085 20.071 12.3231 20.3196 12.3319 20.6437C12.3407 20.8471 12.5346 21.0054 12.7726 21.0054H12.7814C13.0194 20.9978 13.2134 20.832 13.2046 20.6211C13.1869 20.0861 12.9754 19.6565 12.5611 19.3401C11.7854 18.7523 10.6218 18.8201 10.5689 18.8277Z" fill="#8C462E"/>
<path d="M16.66 24.1776C16.422 24.14 16.1928 24.2756 16.1488 24.479C16.087 24.7729 15.6992 25.0668 15.2761 25.1497C14.9323 25.2175 14.4387 25.1873 13.9803 24.6674C12.9489 23.4844 11.1948 23.7933 10.4103 24.1174C10.3662 24.14 10.3221 24.1626 10.2869 24.2002C10.472 24.366 10.6042 24.4564 10.6042 24.4564C10.5513 24.577 10.516 24.6976 10.472 24.8106C10.5778 24.8407 10.6835 24.8332 10.7893 24.788C10.8598 24.7579 12.4201 24.1324 13.2839 25.112C13.7423 25.6395 14.3593 25.9183 15.0116 25.9183C15.1615 25.9183 15.3201 25.9032 15.4788 25.873C16.2545 25.7148 16.8804 25.2024 17.0126 24.6071C17.0567 24.4112 16.898 24.2153 16.66 24.1776Z" fill="#8C462E"/>
<path d="M19.957 29.2413C18.8463 28.8796 17.9384 28.8871 17.242 29.2639C16.2459 29.8064 16.1401 30.899 16.1401 30.9442C16.1401 30.9668 16.1401 30.9894 16.1401 31.0045C16.4046 30.997 16.5721 30.9668 16.5721 30.9668C16.6778 31.0573 16.7836 31.1477 16.8806 31.2306C16.9511 31.1703 16.9952 31.0874 17.004 30.997C17.004 30.9819 17.0921 30.2208 17.7092 29.8893C18.1587 29.6482 18.8022 29.6633 19.6396 29.9345C19.8688 30.0099 20.1157 29.9119 20.2038 29.716C20.2919 29.5276 20.1774 29.3166 19.957 29.2413Z" fill="#8C462E"/>
<path d="M16.8189 26.8376C16.6162 26.7245 16.3429 26.7773 16.2195 26.9506C15.1793 28.3521 13.531 28.224 12.6847 28.0356C12.6495 28.3144 12.6495 28.5706 12.6671 28.7967C12.9756 28.8494 13.3106 28.8871 13.6632 28.8871C14.8003 28.8871 16.0784 28.533 16.9599 27.35C17.0833 27.1766 17.0216 26.9431 16.8189 26.8376Z" fill="#8C462E"/>
</svg>
