<svg width="40" height="40" viewBox="0 0 40 40" fill="none" xmlns="http://www.w3.org/2000/svg">
<path d="M27.2257 23.4689L34.219 18.3672V6.2468H5.78094V18.3672L12.7741 23.4689H27.2257ZM9.88128 10.4245H30.1184C30.2585 10.4245 30.3723 10.524 30.3723 10.6468C30.3723 10.7692 30.2585 10.8688 30.1184 10.8688H9.88128C9.74211 10.8688 9.62885 10.7692 9.62885 10.6468C9.62885 10.524 9.74211 10.4245 9.88128 10.4245ZM9.88128 13.6858H30.1184C30.2585 13.6858 30.3723 13.7854 30.3723 13.9078C30.3723 14.0302 30.2585 14.1297 30.1184 14.1297H9.88128C9.74211 14.1297 9.62885 14.0302 9.62885 13.9078C9.62885 13.7854 9.74211 13.6858 9.88128 13.6858ZM9.88128 16.9469H30.1184C30.2585 16.9469 30.3723 17.0465 30.3723 17.1688C30.3723 17.2912 30.2585 17.3908 30.1184 17.3908H9.88128C9.74211 17.3908 9.62885 17.2912 9.62885 17.1688C9.62885 17.0465 9.74211 16.9469 9.88128 16.9469ZM9.62885 20.4298C9.62885 20.3074 9.74195 20.2079 9.88128 20.2079H30.1184C30.2585 20.2079 30.3723 20.3074 30.3723 20.4298C30.3723 20.5524 30.2585 20.652 30.1184 20.652H9.88128C9.74211 20.652 9.62885 20.5524 9.62885 20.4298Z" fill="white"/>
<path d="M22.7549 26.73L26.6169 23.9128H13.3828L17.2454 26.73H22.7549Z" fill="white"/>
<path d="M19.9995 0.508888L12.7419 5.80309H27.2571L19.9995 0.508888Z" fill="#997C95"/>
<path d="M34.7255 14.8466V17.9976L39.0457 14.8466H34.7255Z" fill="#997C95"/>
<path d="M5.27436 11.2501L0.953369 14.4025H5.27436V11.2501Z" fill="#997C95"/>
<path d="M20.2534 39.556H39.4925V15.0988L20.2534 29.133V39.556Z" fill="#AD8CA9"/>
<path d="M5.27442 14.8466H0.954346L5.27442 17.9976V14.8466Z" fill="#997C95"/>
<path d="M34.7255 11.2516V14.4025H39.0457L34.7255 11.2516Z" fill="#997C95"/>
<path d="M17.8542 27.1741L20.0002 28.7399L22.1462 27.1741H17.8542Z" fill="white"/>
<path d="M0.506409 39.556H19.747V29.133L0.507332 15.0988L0.506409 39.556Z" fill="#AD8CA9"/>
<path d="M9.88128 10.8686H30.1184C30.2585 10.8686 30.3723 10.7691 30.3723 10.6467C30.3723 10.5239 30.2585 10.4244 30.1184 10.4244H9.88128C9.7421 10.4244 9.62885 10.5239 9.62885 10.6467C9.62885 10.7691 9.7421 10.8686 9.88128 10.8686Z" fill="#231F20"/>
<path d="M9.88128 14.1297H30.1184C30.2585 14.1297 30.3723 14.0302 30.3723 13.9078C30.3723 13.7854 30.2585 13.6859 30.1184 13.6859H9.88128C9.7421 13.6859 9.62885 13.7854 9.62885 13.9078C9.62885 14.0302 9.7421 14.1297 9.88128 14.1297Z" fill="#231F20"/>
<path d="M9.88128 17.3906H30.1184C30.2585 17.3906 30.3723 17.2911 30.3723 17.1687C30.3723 17.0463 30.2585 16.9468 30.1184 16.9468H9.88128C9.7421 16.9468 9.62885 17.0463 9.62885 17.1687C9.62885 17.2911 9.7421 17.3906 9.88128 17.3906Z" fill="#231F20"/>
<path d="M30.3725 20.4298C30.3725 20.3074 30.2587 20.2079 30.1185 20.2079H9.88146C9.74228 20.2079 9.62903 20.3074 9.62903 20.4298C9.62903 20.5524 9.74213 20.652 9.88146 20.652H30.1185C30.2585 20.652 30.3725 20.5524 30.3725 20.4298Z" fill="#231F20"/>
<path d="M39.998 14.6079C39.9968 14.6009 39.9952 14.5952 39.9941 14.5903C39.9924 14.5788 39.9906 14.5681 39.9884 14.565L39.95 14.494C39.9435 14.487 39.9363 14.4804 39.9252 14.4701L34.7256 10.6736V6.02529C34.7256 5.90263 34.6122 5.8031 34.4724 5.8031H28.0497L20.1613 0.0490905C20.0706 -0.0163635 19.9289 -0.0163635 19.8374 0.0490905L11.9495 5.8031H5.52806C5.38811 5.8031 5.2744 5.90263 5.2744 6.02529V10.6728L0.0913325 14.4543C0.0848519 14.4591 0.078843 14.4648 0.0732883 14.4712C0.0652647 14.4782 0.0580009 14.4852 0.0496688 14.494L0.0347135 14.5138C0.0314732 14.519 0.0286963 14.525 0.0274619 14.5289L0.0121865 14.5595C0.00940908 14.5693 0.00740289 14.5784 0.00416261 14.5961C0.00339111 14.6007 0.00246667 14.6052 0.00169518 14.6098L0 39.7788C0 39.9007 0.113551 40 0.252883 40H39.7456C39.8855 40 39.9991 39.9009 39.9991 39.7788L40 14.6256L39.998 14.6079ZM34.7255 11.2516L39.0457 14.4026H34.7255V11.2516ZM34.7255 14.8466H39.0457L34.7255 17.9976V14.8466ZM19.9995 0.508892L27.2571 5.80296H12.7419L19.9995 0.508892ZM5.78111 6.2468H34.2192V18.3672L27.2259 23.4689H12.7744L5.78126 18.3672V6.2468H5.78111ZM26.6169 23.9128L22.7549 26.73H17.2454L13.383 23.9128H26.6169ZM5.2744 11.2501V14.4025H0.953407L5.2744 11.2501ZM5.2744 14.8466V17.9976L0.95433 14.8466H5.2744ZM19.747 39.556H0.506407L0.50733 15.0988L19.747 29.133V39.556ZM17.8542 27.1741H22.1462L20.0002 28.7399L17.8542 27.1741ZM39.4925 39.556H20.2533V29.133L39.4925 15.0988V39.556Z" fill="#231F20"/>
</svg>
