<svg width="39" height="39" viewBox="0 0 39 39" fill="none" xmlns="http://www.w3.org/2000/svg">
<circle cx="19.5" cy="19.5" r="19.5" fill="url(#paint0_linear_163_112)"/>
<path d="M28.5818 15.1864C28.3513 14.3253 27.6746 13.6487 26.8136 13.4182C25.2545 13 19 13 19 13C19 13 12.7455 13 11.1864 13.4182C10.3253 13.6487 9.64867 14.3253 9.41818 15.1864C9 16.7455 9 20.0003 9 20.0003C9 20.0003 9 23.2552 9.41818 24.8143C9.64867 25.6753 10.3253 26.352 11.1864 26.5825C12.7455 27.0007 19 27.0007 19 27.0007C19 27.0007 25.2545 27.0007 26.8136 26.5825C27.6746 26.352 28.3513 25.6753 28.5818 24.8143C29 23.2552 29 20.0003 29 20.0003C29 20.0003 28.9983 16.7455 28.5818 15.1864Z" fill="white"/>
<path d="M16.998 23.0003L22.194 20.0007L16.998 17.001V23.0003Z" fill="#D93737"/>
<defs>
<linearGradient id="paint0_linear_163_112" x1="7.5" y1="6.5" x2="29" y2="39" gradientUnits="userSpaceOnUse">
<stop stop-color="#FF0000"/>
<stop offset="1" stop-color="#A32020"/>
</linearGradient>
</defs>
</svg>
