<svg width="14" height="15" viewBox="0 0 14 15" fill="none" xmlns="http://www.w3.org/2000/svg">
<path d="M12.9996 10.733V12.69C13.0003 12.8717 12.963 13.0515 12.8901 13.218C12.8172 13.3845 12.7102 13.5339 12.5761 13.6567C12.442 13.7795 12.2836 13.873 12.1111 13.9312C11.9387 13.9894 11.756 14.0111 11.5747 13.9947C9.56332 13.7766 7.63128 13.0907 5.93379 11.992C4.35449 10.9905 3.01552 9.65414 2.01197 8.07797C0.907309 6.37614 0.219857 4.43855 0.00530538 2.42217C-0.0110287 2.24177 0.0104527 2.05996 0.0683815 1.88831C0.12631 1.71665 0.219418 1.55892 0.341775 1.42514C0.464133 1.29137 0.61306 1.18449 0.779074 1.1113C0.945089 1.03812 1.12455 1.00023 1.30604 1.00006H3.26695C3.58416 0.996947 3.89169 1.10906 4.13221 1.31549C4.37273 1.52193 4.52983 1.80861 4.57422 2.12209C4.65699 2.74838 4.81048 3.36332 5.03177 3.95517C5.11971 4.18866 5.13874 4.44241 5.08661 4.68637C5.03448 4.93032 4.91337 5.15425 4.73763 5.33161L3.90751 6.16008C4.838 7.79325 6.19292 9.14549 7.82933 10.0741L8.65945 9.24566C8.83717 9.07027 9.06154 8.9494 9.30598 8.89737C9.55041 8.84534 9.80467 8.86434 10.0386 8.95211C10.6317 9.17296 11.2478 9.32614 11.8753 9.40874C12.1929 9.45345 12.4828 9.61306 12.6901 9.85723C12.8974 10.1014 13.0076 10.4131 12.9996 10.733Z" stroke="#384999" stroke-linecap="round" stroke-linejoin="round"/>
</svg>
