<svg width="35" height="35" viewBox="0 0 35 35" fill="none" xmlns="http://www.w3.org/2000/svg">
<circle cx="17.5" cy="17.5" r="17.5" fill="#CB5858" fill-opacity="0.22"/>
<path d="M26.9994 22.4765V25.1862C27.0005 25.4377 26.9488 25.6867 26.8479 25.9172C26.7469 26.1477 26.5988 26.3546 26.413 26.5247C26.2273 26.6947 26.008 26.8242 25.7693 26.9048C25.5305 26.9854 25.2775 27.0153 25.0265 26.9927C22.2415 26.6907 19.5664 25.7409 17.216 24.2197C15.0293 22.8329 13.1753 20.9827 11.7858 18.8003C10.2563 16.4439 9.30442 13.7611 9.00735 10.9692C8.98473 10.7194 9.01447 10.4676 9.09468 10.23C9.17489 9.99229 9.30381 9.77389 9.47323 9.58866C9.64265 9.40343 9.84885 9.25544 10.0787 9.15411C10.3086 9.05278 10.5571 9.00032 10.8084 9.00009H13.5235C13.9627 8.99577 14.3885 9.151 14.7215 9.43683C15.0545 9.72267 15.2721 10.1196 15.3335 10.5537C15.4481 11.4208 15.6607 12.2723 15.9671 13.0918C16.0888 13.4151 16.1152 13.7664 16.043 14.1042C15.9708 14.442 15.8031 14.752 15.5598 14.9976L14.4104 16.1447C15.6988 18.406 17.5748 20.2784 19.8406 21.5642L20.99 20.4171C21.2361 20.1742 21.5467 20.0069 21.8852 19.9348C22.2236 19.8628 22.5757 19.8891 22.8996 20.0106C23.7207 20.3164 24.5739 20.5285 25.4428 20.6429C25.8824 20.7048 26.2839 20.9258 26.5709 21.2639C26.858 21.6019 27.0105 22.0335 26.9994 22.4765Z" stroke="#ED360E" stroke-width="2" stroke-linecap="round" stroke-linejoin="round"/>
</svg>
